<svg xmlns="http://www.w3.org/2000/svg" xmlns:xlink="http://www.w3.org/1999/xlink" width="410" height="338.286" viewBox="0 0 410 338.286"><defs><style>.a{fill:url(#a);}.b{fill:#fe9c77;}.c{fill:url(#b);}.d{fill:url(#j);}.e{fill:url(#k);}.f{fill:#f0f3f6;}.g{fill:url(#s);}.h{fill:#e0e4ec;}.i{fill:#2e353a;}.j{fill:#e9e9e9;}.k{fill:none;}.l{fill:url(#ac);}.m{fill:url(#ad);}.n{fill:#626873;}.o{fill:#cd877b;}.p{fill:#1e2226;}.q{fill:#fff;}.r{fill:#41464f;}.ac,.s{stroke:rgba(0,0,0,0);stroke-miterlimit:10;}.s{fill:url(#af);}.t{fill:#83cde4;}.u{fill:#20afd3;}.v{fill:url(#ag);}.w{fill:url(#ah);}.x{fill:url(#ak);}.y{fill:url(#al);}.z{fill:#49505c;}.aa{fill:url(#ao);}.ab{fill:#d04c5b;}.ac{fill:#ee99a1;}</style><linearGradient id="a" x1="0.5" x2="0.5" y2="1" gradientUnits="objectBoundingBox"><stop offset="0" stop-color="#fe9875"/><stop offset="1" stop-color="#febd87"/></linearGradient><linearGradient id="b" x1="5.909" x2="5.763" xlink:href="#a"/><linearGradient id="j" x1="17.937" y1="1" x2="17.46" y2="2.899" xlink:href="#a"/><linearGradient id="k" x1="10.481" y1="-0.138" x2="11.21" y2="0.855" xlink:href="#a"/><linearGradient id="s" x1="0.866" y1="0.288" x2="0.254" y2="0.5" gradientUnits="objectBoundingBox"><stop offset="0" stop-color="#e57497"/><stop offset="1" stop-color="#f7b8aa"/></linearGradient><linearGradient id="ac" x1="13.243" y1="4.247" x2="13.413" y2="3.374" gradientUnits="objectBoundingBox"><stop offset="0" stop-color="#f9665e"/><stop offset="1" stop-color="#ffd391"/></linearGradient><linearGradient id="ad" x1="0.5" x2="0.5" y2="1" gradientUnits="objectBoundingBox"><stop offset="0" stop-color="#f9665e"/><stop offset="1" stop-color="#ffda95"/></linearGradient><linearGradient id="af" x1="1.268" y1="0.447" x2="0.279" y2="0.945" xlink:href="#s"/><linearGradient id="ag" x1="3.98" y1="22.967" x2="-0.579" y2="6.921" gradientUnits="objectBoundingBox"><stop offset="0" stop-color="#3aafd6"/><stop offset="1" stop-color="#b0e0ed"/></linearGradient><linearGradient id="ah" x1="0.014" y1="0.327" x2="0.892" y2="0.446" xlink:href="#ag"/><linearGradient id="ak" x1="0.312" y1="0.631" x2="0.803" y2="0.674" xlink:href="#ag"/><linearGradient id="al" x1="0.491" y1="0.073" x2="0.609" y2="0.858" xlink:href="#ag"/><linearGradient id="ao" x1="0.5" y1="0" x2="0.5" y2="1" xlink:href="#ag"/></defs><g transform="translate(-130 -374)"><g transform="translate(130 374)"><rect class="a" width="9.839" height="36.727" transform="translate(261.407 75.566)"/><g transform="translate(226.598 126.353)"><rect class="b" width="9.84" height="36.726" transform="translate(71.479 7.675)"/><rect class="c" width="9.838" height="42.301" transform="translate(163.374 2.1)"/><rect class="c" width="9.838" height="42.301" transform="translate(115.796 2.1)"/><rect class="c" width="42.301" height="9.84" transform="translate(54.596 42.729) rotate(-80.219)"/><rect class="c" width="9.84" height="36.727" transform="translate(151.182 7.674)"/><rect class="c" width="9.84" height="36.727" transform="translate(128.566 7.674)"/><rect class="c" width="36.719" height="9.839" transform="translate(94.902 42.264) rotate(-77.456)"/><rect class="c" width="4.92" height="44.401" transform="translate(142.674)"/><rect class="c" width="4.92" height="44.401" transform="translate(84.148)"/><rect class="d" width="9.838" height="42.301" transform="translate(0 2.1)"/></g><g transform="translate(290.63 184.816)"><rect class="e" width="9.839" height="42.301" transform="translate(35.387 2.1)"/><rect class="e" width="9.84" height="42.301" transform="matrix(0.985, -0.17, 0.17, 0.985, 89.544, 2.716)"/><rect class="e" width="9.84" height="36.727" transform="translate(0 7.674)"/><rect class="e" width="9.839" height="36.727" transform="translate(22.617 7.674)"/><rect class="e" width="9.84" height="36.727" transform="translate(79.704 7.674)"/><rect class="e" width="9.84" height="36.725" transform="translate(48.545 8.549) rotate(-12.529)"/><rect class="e" width="4.92" height="44.4" transform="translate(13.429)"/><rect class="e" width="4.92" height="44.4" transform="translate(71.956)"/></g><path class="f" d="M47.289,5.742,11.51,139.736V67.194L27.883,5.742Z" transform="translate(0.66 0.329)"/><path class="f" d="M62.906,5.742,25.175,147.086h-7.12L55.789,5.742Z" transform="translate(1.035 0.329)"/><path class="g" d="M185.385,139.3c-.419,2.095,8.784,4.185,10.248,4.185a6.256,6.256,0,0,0,2.92-.943l6.072,6.383,7.106-3.765L204,137.212s-12.757-2.936-14.431-3.767a.915.915,0,0,0-.417-.1c-1.587,0-3.382,4.035-3.766,5.956" transform="translate(10.623 7.641)"/><path class="h" d="M394.476,286.36H208.085V50.334H394.476Zm-179.8-110.5h0v50.47H387.887v-50.47Zm0-58.463h0v50.47H387.887V117.4Zm0-58.469h0v50.477H387.887V58.935H214.673Z" transform="translate(11.924 2.884)"/><path class="h" d="M410,309.277c0,6.612-91.782,11.972-205,11.972S0,315.889,0,309.277s91.782-11.972,205-11.972,205,5.359,205,11.972" transform="translate(0 17.037)"/><path class="i" d="M122.771,155.616,122.2,163.4,111.13,317.384h-6.471L113.71,163.4l.465-7.785Z" transform="translate(5.998 8.918)"/><path d="M232.785,163.017h-8.49l-.571-7.4h8.6Z" transform="translate(12.821 8.918)"/><rect class="j" width="6.696" height="0.263" transform="translate(51.222 299.513)"/><path class="h" d="M144.168,153.168H5.75V0H144.168ZM11.84,147.416h126.6V6.068H11.84Z" transform="translate(0.33)"/><rect class="h" width="4.916" height="153.168" transform="translate(72.83)"/><rect class="h" width="133.359" height="4.916" transform="translate(8.483 31.078)"/><rect class="k" width="138.418" height="153.168" transform="translate(6.08)"/><g transform="translate(226.598 67.891)"><rect class="a" width="9.838" height="42.302" transform="translate(0 2.1)"/><rect class="a" width="9.838" height="42.302" transform="translate(47.579 2.1)"/><rect class="a" width="9.835" height="42.282" transform="translate(101.735 2.715) rotate(-9.792)"/><rect class="a" width="9.84" height="36.727" transform="translate(12.191 7.675)"/><rect class="a" width="9.839" height="36.727" transform="translate(91.896 7.675)"/><rect class="a" width="9.84" height="36.726" transform="translate(60.736 8.55) rotate(-12.53)"/><rect class="a" width="4.92" height="44.402" transform="translate(25.621)"/><rect class="a" width="4.92" height="44.402" transform="translate(84.148)"/><rect class="d" width="9.839" height="36.727" transform="translate(34.81 7.675)"/></g><rect class="f" width="9.84" height="36.726" transform="translate(238.789 134.028)"/><rect class="f" width="9.839" height="36.726" transform="translate(261.407 134.028)"/><rect class="f" width="4.92" height="44.401" transform="translate(252.218 126.353)"/><rect class="f" width="9.839" height="42.301" transform="translate(266.969 187.531) rotate(-9.782)"/><rect class="f" width="9.84" height="36.726" transform="translate(257.131 192.491)"/><rect class="f" width="9.84" height="36.726" transform="matrix(0.976, -0.217, 0.217, 0.976, 225.971, 193.365)"/><rect class="f" width="4.92" height="44.401" transform="translate(249.383 184.816)"/><g transform="translate(335.166 233.444)"><g transform="translate(0 0)"><path class="l" d="M333.16,290.476s4.557-9.939-.649-19.743-6.716-12.109-3.4-14.117,4.841,7.84,4.841,7.84a22.121,22.121,0,0,0,.487-13.867c-2.31-7.09-3.759-18.639-.6-19.877s.6,14.407,3.34,19.741a46.016,46.016,0,0,0,2.677-11.63c.379-5.7-.211-14.791,2.278-17.128s4.088-.718,1.639,11.849a131.509,131.509,0,0,0-2.432,22.785s5.407-16.487,9.036-16.968,3.624,4.864.518,9.49-9.093,12.927-10.079,17.195c0,0,5.935-12.406,11.274-8.6s-4.647,11.3-9.1,14-7.542,19.682-7.542,19.682Z" transform="translate(-316.663 -220.791)"/><path class="m" d="M337.335,294.341s-4.441-10.01.886-19.731,6.861-12.009,3.566-14.062-4.935,7.769-4.935,7.769a22.144,22.144,0,0,1-.317-13.872c2.395-7.055,3.981-18.581.846-19.868s-.775,14.4-3.576,19.689a46.019,46.019,0,0,1-2.538-11.672c-.311-5.7.39-14.785-2.073-17.155s-4.078-.779-1.78,11.825a131.427,131.427,0,0,1,2.156,22.819s-5.208-16.566-8.832-17.1-3.682,4.8-.634,9.481,8.941,13.061,9.872,17.34c0,0-5.786-12.493-11.169-8.776s4.51,11.365,8.929,14.139,7.3,19.793,7.3,19.793Z" transform="translate(-317.242 -220.578)"/></g><path class="i" d="M316.889,283.807l2.969,26.232h30.721l2.967-26.232Z" transform="translate(-316.889 -217.18)"/></g><path class="i" d="M299.923,148.464l-12.87,76.843h-5.9l12.286-76.092Z" transform="translate(16.112 8.508)"/><path class="i" d="M280.916,149.624,271,226.9l-5.893.225,9.363-76.507Z" transform="translate(15.192 8.574)"/><path class="f" d="M261.575,147.069,255.4,224.738l-5.874.509,5.66-76.866Z" transform="translate(14.299 8.428)"/><path class="f" d="M261.575,147.069,255.4,224.738l-5.874.509,5.66-76.866Z" transform="translate(14.299 8.428)"/><path class="n" d="M249.537,222.616l.381,16.46,1.734,74.468h5.72l1.723-74.468.381-16.46Z" transform="translate(14.3 12.757)"/><path class="n" d="M221.7,313.223h-6.53l4.795-81.467.476-8.141h8.638l-.666,8.141Z" transform="translate(12.33 12.814)"/><path class="n" d="M287.535,313.223l-6.71-81.467-.666-8.141H288.8l.476,8.141,4.795,81.467Z" transform="translate(16.055 12.814)"/><path class="i" d="M0,0H78.386a4,4,0,0,1,4,4v8.363a0,0,0,0,1,0,0H0a0,0,0,0,1,0,0V0A0,0,0,0,1,0,0Z" transform="translate(227.087 227.267)"/><path class="k" d="M221.066,214.949v0a5.287,5.287,0,0,0-5.287,5.287v7.072h81.329v-7.077a5.287,5.287,0,0,0-5.288-5.287Z" transform="translate(12.365 12.318)"/><path class="i" d="M311.454,132.288,307.8,153.917a4.793,4.793,0,0,1-4.728,3.994H252.555a4.8,4.8,0,0,1-4.8-4.795,4.672,4.672,0,0,1,.029-.517l2.35-21.626a4.794,4.794,0,0,1,4.768-4.278h51.82a4.8,4.8,0,0,1,4.729,5.6" transform="translate(14.198 7.26)"/><path class="o" d="M161.24,274.113l6.953,1.675,3.519-9.6,3.2-8.73-7.918-3.377-3.045,10.593Z" transform="translate(9.24 14.56)"/><g transform="translate(153.127 284.504)"><path class="i" d="M170.822,274.3c.167-.771-9.4-2.437-9.4-2.437s-7.213,4.5-13.16,4.467-3.615,4.1,2.675,5.617,11.091,2.672,15.561,3.747,2.592-3.4,4.319-11.395" transform="translate(-144.827 -268.925)"/><path class="i" d="M154.566,272.815a.928.928,0,0,1,.013-1.057,1.036,1.036,0,0,1,.658-.518,3.963,3.963,0,0,1,2.166.278c-.667-.594-1.218-1.252-1.128-1.753.059-.327.332-.543.81-.643a1.487,1.487,0,0,1,1.226.259c1.147.837,1.41,3.217,1.422,3.329a.256.256,0,0,1-.015.116.234.234,0,0,1-.031.058.221.221,0,0,1-.07.067.287.287,0,0,1-.085.037,16.671,16.671,0,0,1-3.054.362,2.5,2.5,0,0,1-1.913-.535m.814-1.086a.534.534,0,0,0-.349.264c-.183.347-.089.471-.058.513.356.472,2.207.368,3.735.115-1-.49-2.554-1.122-3.328-.892m1.809-2.108c-.143.029-.387.1-.411.234-.078.429,1.092,1.48,2.359,2.351a4.227,4.227,0,0,0-1.127-2.413.97.97,0,0,0-.586-.2,1.089,1.089,0,0,0-.235.024" transform="translate(-144.278 -269.084)"/></g><path class="p" d="M163.8,264.676l7.769,1.514,3.2-8.73-7.919-3.383Z" transform="translate(9.386 14.56)"/><path class="i" d="M227.222,87.072c2.513,3.647,1.846,10.15-1.291,11.824s1.717,5.44,1.8,8.368-4.727,6.274-5.146,10.457-2.928,12.34,15.372,14.639,34.341-1.262,37.509-8.578-8.486-9.881-9.141-12.885,3.107-3.256,2.9-7.732-7.8-4.2-6.084-9.076c2.669-7.583-1.074-14.768-1.074-14.768Z" transform="translate(12.735 4.545)"/><path class="n" d="M164.457,264.643l9.643,3.585s25.724-64.316,31.011-64.538,59.114,24.518,72.605,10.8-6.014-46.777-6.014-46.777-32.449-4.631-34.891,2.7a51.25,51.25,0,0,0-1.374,6.579c-.37,2.24-.624,4.122-.624,4.122a.031.031,0,0,1-.021-.011c-1-.254-33.58-8.658-46.416.011-13.037,8.819-23.916,83.539-23.916,83.539" transform="translate(9.424 9.528)"/><path class="i" d="M210.468,299.361a.931.931,0,0,1-.247-1.03,1.039,1.039,0,0,1,.51-.662,3.977,3.977,0,0,1,2.169-.263c-.792-.41-1.488-.913-1.524-1.421-.023-.332.188-.608.627-.824a1.492,1.492,0,0,1,1.253-.049c1.318.529,2.159,2.775,2.2,2.877a.245.245,0,0,1,.014.121.16.16,0,0,1-.013.055.228.228,0,0,1-.057.091.246.246,0,0,1-.061.048h-.01a11.976,11.976,0,0,1-4.03,1.275,1.3,1.3,0,0,1-.825-.223m.522-1.251a.533.533,0,0,0-.273.342c-.093.381.03.479.07.511.459.369,2.229-.186,3.649-.807-1.088-.228-2.749-.456-3.446-.045m1.236-2.489c-.132.065-.351.192-.342.328.031.436,1.423,1.171,2.864,1.7a4.2,4.2,0,0,0-1.685-2.061,1.006,1.006,0,0,0-.382-.078,1.05,1.05,0,0,0-.456.112" transform="translate(12.043 16.905)"/><path class="i" d="M267.045,162.859l.781,5.047L232.935,170.6l-.924-5.968Z" transform="translate(13.296 9.333)"/><path d="M267.045,162.859l.781,5.047L232.935,170.6l-.924-5.968Z" transform="translate(13.296 9.333)"/><rect class="i" width="1.732" height="8.828" transform="translate(268.439 171.859) rotate(-5.85)"/><rect class="q" width="7.659" height="5.809" transform="translate(253.47 173.958) rotate(-3.672)"/><rect class="i" width="1.732" height="8.827" transform="matrix(0.995, -0.103, 0.103, 0.995, 247.013, 172.806)"/><path class="r" d="M178.137,259.586l-14.044-4.776-.6,5.756,10.653,3.765Z" transform="translate(9.369 14.602)"/><rect class="k" width="14.645" height="9.52" transform="translate(172.861 269.413)"/><path class="r" d="M231,180.523l18.979,3.954s-10.488-5.793-18.355-8.076c-.37,2.24-.624,4.122-.624,4.122" transform="translate(13.237 10.109)"/><path class="i" d="M230.39,90.506s-5.057-22.732,15.974-20.485c26.4,2.823,16.37,35.582,3.286,33.6s-19.26-13.111-19.26-13.111" transform="translate(13.172 4.004)"/><g transform="translate(212.53 125.756)"><path class="q" d="M229.552,118.942c-7.841,3.412-13.7,27.854-13.7,27.854l-7.111-6.248-7.733,7.312s6.555,16.313,15.614,17.517,21.408-15,23.808-24.83-10.882-21.606-10.882-21.606" transform="translate(-201.011 -118.94)"/><path class="f" d="M228.3,118.94c-2.154,5.088-6.635,17.13-5.054,22.844s3.516,13.1,3.516,13.1,10.456-19.514,10.107-21.359S228.3,118.94,228.3,118.94" transform="translate(-199.756 -118.94)"/></g><path class="i" d="M252.807,90.719s-4.833-7.016-4.686-12.767c0,0-18.42-5.74-17.746,12.4,0,0-3.117-15.888,12.289-17.572,15.381-1.682,17.281,20.9,9.887,28.318,0,0,3.25-5.984.256-10.375" transform="translate(13.187 4.165)"/><path class="q" d="M231.359,173.549,228.2,183.5s46.194,3.352,50.825,29.85c0,0,7.232,3.881-1.11-21.907s-8.4-54.219-6.206-75.42c0,0-1.6-.708-4.282-1.586l-1.237-.381a58.486,58.486,0,0,0-19.528-2.622c-8.12.423-13.237,3.331-15.976,5.509a13.635,13.635,0,0,0-2.485,2.433s-9.812,27.765,3.161,54.175" transform="translate(12.873 6.384)"/><path class="g" d="M200.264,142.468c2.3,1.011,12.328,1.011,13.066,1.011s2.619-1.6,2.619-1.6l10.439,6.846,3.6-6.584s-11.906-5.768-13.912-6.185-9.745-2.3-12.673-2.511c-.036,0-.073,0-.11,0-2.88,0-5.3,8.033-3.027,9.03" transform="translate(11.425 7.647)"/><path class="i" d="M177.291,155.616l-.17,26.143-.888,135.626h-6.481l-.888-135.626-.169-26.142Z" transform="translate(9.667 8.918)"/><path class="s" d="M.056,13.182a29.587,29.587,0,0,1,6.127-1.653,12.452,12.452,0,0,0-.145-3.793A30.518,30.518,0,0,0,4.971,3.489L14.911,0s-2.1,6.421.576,11.071a34.7,34.7,0,0,1,4.165.523c-1.868,3.5-6.191,9.3-11.763,9.753-.346.028-.679.042-1,.042C1.786,21.389-.388,17.887.056,13.182Z" transform="translate(249.589 106.685)"/><path class="t" d="M29.857,202.763l.836,20.985L22.328,228h5.438l.836,29.017H20.236l8.366,3.365.423,17.4-8.784,1.724,9.2,3.305-2.51,19.047-6.694,1.9h6.275v10.651H67.448l1.309-70.648-.836-31.483,7.11-1.254-4.6-1.256v-7.009Z" transform="translate(1.16 11.619)"/><path class="u" d="M29.444,282.815l15.68,2.865-.835,10.076H32.161l14.009,2.612-1.047,2.59H35.5l13.808,2.3-6.9.835.412,3.13-16.3-3.467v10.658H67.448l1.311-70.65-.835-31.487,7.116-1.257-4.61-1.249v-7.01H51.821v7.01H38.22l13.6,2.093v2.5L35.5,215.766l14.221.909.423,3.554,1.671,5.434-24.085,1.9-5.4.434,5.435.032,19.867.137v7.951H37.078l14.739,2.306-1.047,3.224h5.995l-7.454,2h-15.9L47.63,245.37v7.064H31.95l12.963,1.881.211,4.271-24.889-1.574,8.363,3.372,16.113,3.13,1.036,6.28H35.925l10.034,1.882v4.6l-7.454.835,9.125,1.628-2.506,2.971L20.235,279.5Z" transform="translate(1.16 11.62)"/><path class="k" d="M91.993,240l-33.051,1.66L60,257.432l-3.764,1.883L60,258.847l-.137,4.029-.92,28.029-2.707.628,4.821,1.85L60,312.574l41.129-.264v-8.035l2.791-.614-3.849-1.786,1.057-28.41,1.533-.878-2.59-1.755,1.057-21.336,2.791-1.469-2.791.031v-8.516Z" transform="translate(3.223 13.727)"/><path class="t" d="M112.346,344.192l4.821,1.85-1.057,19.19,41.129-.264v-8.036l2.791-.613-3.849-1.787,1.057-28.41,1.533-.878-2.59-1.755,1.057-21.336,2.791-1.47-2.791.032V292.2l-9.135.455-33.051,1.66,1.057,15.775-3.764,1.882,3.764-.465-.137,4.028-.92,28.029Z" transform="translate(-52.771 -39.292)"/><path class="u" d="M92.257,310.973l-32.23,1.6,41.433-.264v-8.035l2.812-.613-3.877-1.786,1.065-28.408,1.544-.879-2.61-1.755,1.065-21.334,2.812-1.471-2.812.032v-8.515l-9.2.455-1.108,8.447-27.331,2.929H91.149v7.106l-31.122.369-.138,4.029H91.149v8.4H76.674l14.475,2.664L89.317,289.8l-33.082,1.723,4.857,1.85,28.225.264,1.832,8.965h-22.9l24.007,2.306v3.965l-28.641-1.671Z" transform="translate(3.223 13.37)"/><g transform="translate(57.37 166.642)"><path class="v" d="M65.17,172.478,85.9,174.713a14.973,14.973,0,0,0-9.612-7.383,8.975,8.975,0,0,0-2.115-.256c-5.573,0-9.006,5.4-9.006,5.4" transform="translate(-49.407 -166.583)"/><path class="w" d="M66.935,167.356A71.911,71.911,0,0,1,55.972,169.3a15.111,15.111,0,0,0-5.711,7.53l16.822-2.093c1.352-3.9,5.882-7.39,10.063-7.382h0a10.717,10.717,0,0,0-4.495-.746,24.237,24.237,0,0,0-5.719.746" transform="translate(-50.261 -166.61)"/></g><g transform="translate(129.267 86.287)"><path class="v" d="M65.17,172.478,85.9,174.713a14.973,14.973,0,0,0-9.612-7.383,8.975,8.975,0,0,0-2.115-.256c-5.573,0-9.006,5.4-9.006,5.4" transform="translate(-49.407 -166.583)"/><path class="w" d="M66.935,167.356A71.911,71.911,0,0,1,55.972,169.3a15.111,15.111,0,0,0-5.711,7.53l16.822-2.093c1.352-3.9,5.882-7.39,10.063-7.382h0a10.717,10.717,0,0,0-4.495-.746,24.237,24.237,0,0,0-5.719.746" transform="translate(-50.261 -166.61)"/></g><g transform="translate(28.338 190.967)"><path class="x" d="M50.137,195.343c13.524,1.882,19.38-.13,19.38-.13l-15.5-6.076s-7.084,2.035-12.663,1.437-10.6-5.358-10.6-5.358,5.856,8.247,19.38,10.128" transform="translate(-26.575 -180.354)"/><path class="y" d="M69.744,195.476s-17.56,1.6-21.193-1.48S41.859,182.7,41.859,182.7L26.8,180.617s8.922,22.609,42.942,14.859" transform="translate(-26.802 -180.617)"/></g><g transform="translate(89.662 106.383)"><path class="x" d="M50.137,195.343c13.524,1.882,19.38-.13,19.38-.13l-15.5-6.076s-7.084,2.035-12.663,1.437-10.6-5.358-10.6-5.358,5.856,8.247,19.38,10.128" transform="translate(-26.575 -180.354)"/><path class="y" d="M69.744,195.476s-17.56,1.6-21.193-1.48S41.859,182.7,41.859,182.7L26.8,180.617s8.922,22.609,42.942,14.859" transform="translate(-26.802 -180.617)"/></g><path class="n" d="M107.216,151.531v5.83a2.287,2.287,0,0,0,2.286,2.286H243.523v0a2.286,2.286,0,0,0,2.286-2.286v-5.827Z" transform="translate(6.144 8.684)"/><rect class="i" width="138.594" height="4.058" transform="translate(113.359 160.215)"/><rect class="i" width="138.594" height="4.058" transform="translate(113.359 160.215)"/><rect class="z" width="138.594" height="4.058" transform="translate(113.359 160.215)"/><path class="i" d="M103.543,148.208a2.286,2.286,0,0,0,0,4.572H250.16a2.286,2.286,0,1,0,0-4.572Z" transform="translate(5.803 8.493)"/><path class="aa" d="M58.237,225.784l6.542,6.11c27.419,4.8,36.909-8.184,36.909-8.184l-8.325-8.643c-9.316,7.306-35.126,10.717-35.126,10.717" transform="translate(3.337 12.325)"/><path class="aa" d="M58.413,235.8s10.039,12.563,37.227,6.594v0L101.914,236s-25.933-2.3-35.553-9.2Z" transform="translate(3.347 12.997)"/><rect class="k" width="57.899" height="56.03" transform="translate(232.888 122.168)"/><rect class="k" width="28.919" height="13.835" transform="translate(168.498 142.446)"/><rect class="k" width="28.919" height="13.835" transform="translate(168.498 142.446)"/><rect class="k" width="33.88" height="6.693" transform="translate(165.615 139.831)"/><rect class="k" width="33.88" height="6.693" transform="translate(165.615 139.831)"/><rect class="k" width="7.448" height="6.693" transform="translate(192.048 139.831)"/><rect class="k" width="7.448" height="6.693" transform="translate(192.048 139.831)"/><rect class="k" width="9.286" height="10.666" transform="translate(195.241 141.608)"/><path class="z" d="M214.7,220.794H298.56a2.126,2.126,0,0,1,2.126,2.126v1.926a2.126,2.126,0,0,1-2.125,2.127H214.7a2.127,2.127,0,0,1-2.126-2.126h0V222.92a2.126,2.126,0,0,1,2.126-2.126" transform="translate(12.182 12.653)"/><path class="o" d="M217.141,300.1l6.927-1.774-1.332-9.938-1.237-9.115-8.564.768,2.22,10.621Z" transform="translate(12.202 16.004)"/><path class="ab" d="M240.77,104.394a30.375,30.375,0,0,1,1.066,4.245c4.758-1.9,8.87-7.738,8.87-7.738Z" transform="translate(13.797 5.782)"/><path class="p" d="M215.212,290.875l7.573-2.3-1.261-9.211-8.58.722Z" transform="translate(12.203 16.009)"/><path class="ac" d="M.006,15.178C-.134,5.869,2.344.813,11.325.041c.333-.027.662-.041.984-.041,6.567,0,10.659,5.849,11.666,12.548a3.954,3.954,0,0,1,1.088-.159c2.665.062,4.437,5.1-1.193,7.3-.974,5.282-4.01,10-9.411,11.685a15.829,15.829,0,0,1-4.681.8C2.488,32.176.149,24.965.006,15.178Z" transform="translate(243.555 80.547)"/><g transform="translate(237.813 75.139)"><path class="i" d="M242.233,77.178s4.888,14.465,14.175,13.475-6.678-18.464-6.678-18.464-15.676-4.424-22.473,4.283,3.415,13.965,3.415,13.965-1.556-11.394,11.561-13.26" transform="translate(-224.923 -71.066)"/><path class="i" d="M248.744,89.216a.256.256,0,0,1-.094-.017c-7.75-2.94-7.613-13.241-7.605-13.344a.266.266,0,0,1,.264-.258h.006a.265.265,0,0,1,.258.271c0,.1-.134,10.031,7.265,12.837a.264.264,0,0,1-.094.512" transform="translate(-224 -70.807)"/></g><path class="r" d="M252.93,215.991s-2.2.052-36.233-1.534c0,0,5.087,42.551,7.861,74.406L214.381,290.6s-24.318-68.211-24.054-79.048,12.688-14.009,12.688-14.009,24.249,14.009,49.915,18.451" transform="translate(10.907 11.32)"/><g transform="translate(163.64 119.975)"><path class="aa" d="M186.525,140.077s-1.115-18.089-7.7-27.605H154.771s7.948,13.7,8.052,26.663Z" transform="translate(-154.771 -112.472)"/><g transform="translate(1.975 20.914)"><path class="i" d="M212.858,148.588V145.5L189.225,134.23h-29.86v14.358Z" transform="translate(-156.483 -132.139)"/><rect class="n" width="28.919" height="13.835" transform="translate(2.882 2.615)"/><path class="r" d="M159.985,138.944h27.188a3.346,3.346,0,0,0,0-6.692H159.985a3.346,3.346,0,1,0,0,6.692" transform="translate(-156.639 -132.252)"/><path class="i" d="M184.985,138.944h.755a3.346,3.346,0,0,0,0-6.692h-.755a3.346,3.346,0,1,0,0,6.692" transform="translate(-155.206 -132.252)"/></g><path class="n" d="M186.207,133.933h4.287l3.451,10.666h-1.36l-3.137-7.006h-3.242s-1.627-.941-1.545-2.091,1.545-1.569,1.545-1.569" transform="translate(-153.058 -111.242)"/></g><path class="i" d="M241.846,317.384h-6.481L224.295,163.4l-.571-7.785h8.6l.465,7.785Z" transform="translate(12.821 8.918)"/><g transform="translate(232.889 122.167)"><path class="f" d="M268.587,115.668c-11.6,3.346-13.655,19.564-17.44,30.013-1.513,4.178-12.679.731-12.679.731s18.927,6.512,19.3,5.907,8.129-19.977,7.89-20.657,2.93-15.994,2.93-15.994" transform="translate(-219.514 -115.539)"/><path class="f" d="M271.282,158.571c-2.588,8.1-12.117,16.935-22.178,13.737s-17.358-9.036-18.1-12.023,7.984,1.382,7.984,1.382l16.22,1.1s5.133-.837,5.738-1.1,10.34-3.1,10.34-3.1" transform="translate(-219.654 -113.08)"/><path class="q" d="M271.957,115.782c-9.1-2.818-15.377,20.357-17.886,30.291s-28.879-5.752-28.879-5.752l-4.925,8.555s11.124,23,35.849,22.7,26.538-52.481,15.842-55.792" transform="translate(-220.266 -115.546)"/></g><path class="i" d="M226.554,297c-.029-.788-9.707-.055-9.707-.055s-5.886,6.133-11.659,7.566-2.5,4.863,3.974,4.787l16-.193c4.6-.055,1.677-3.934,1.387-12.105" transform="translate(11.587 16.999)"/><path class="i" d="M224.869,280.993l-13.988,1.586,2.7,5.483L224.9,286.61Z" transform="translate(12.085 16.103)"/></g></g></svg>